<svg width="54" height="48" viewBox="0 0 54 48" fill="none" xmlns="http://www.w3.org/2000/svg">
<path d="M51.321 0.38092H2.70785C1.53876 0.38092 0.594238 1.23211 0.594238 2.28568V46.0952C0.594238 47.1488 1.53876 48 2.70785 48H51.321C52.4901 48 53.4346 47.1488 53.4346 46.0952V2.28568C53.4346 1.23211 52.4901 0.38092 51.321 0.38092ZM49.2074 44.1904H37.0475V29.5595H43.9168L44.9471 22.375H37.0475V17.7857C37.0475 15.7023 37.6882 14.2857 40.9973 14.2857H45.2179V7.85711C44.4848 7.76783 41.9815 7.5714 39.062 7.5714C32.9722 7.5714 28.8044 10.9226 28.8044 17.0714V22.369H21.9219V29.5535H28.811V44.1904H4.82147V4.19044H49.2074V44.1904Z" fill="white"/>
</svg>
