<svg width="214" height="36" viewBox="0 0 214 36" fill="none" xmlns="http://www.w3.org/2000/svg">
<path d="M16.5914 35.24C14.3834 35.24 12.2874 34.792 10.3034 33.896C8.35139 33 6.62339 31.768 5.1194 30.2C3.64739 28.6 2.49539 26.744 1.66339 24.632C0.831395 22.52 0.415395 20.232 0.415395 17.768C0.415395 15.432 0.831395 13.24 1.66339 11.192C2.49539 9.112 3.66339 7.288 5.1674 5.72C6.67139 4.152 8.43139 2.92 10.4474 2.024C12.4634 1.128 14.6554 0.679998 17.0234 0.679998C20.2234 0.679998 22.9594 1.368 25.2314 2.744C27.5354 4.088 29.2634 5.88 30.4154 8.12L25.4714 11.768C24.6074 10.072 23.3914 8.776 21.8234 7.88C20.2874 6.984 18.6074 6.536 16.7834 6.536C15.3434 6.536 14.0314 6.84 12.8474 7.448C11.6634 8.056 10.6394 8.888 9.7754 9.944C8.91139 11 8.23939 12.216 7.75939 13.592C7.31139 14.968 7.08739 16.424 7.08739 17.96C7.08739 19.592 7.32739 21.096 7.80739 22.472C8.31939 23.848 9.02339 25.048 9.91939 26.072C10.8474 27.096 11.9194 27.912 13.1354 28.52C14.3514 29.096 15.6954 29.384 17.1674 29.384C18.8954 29.384 20.5434 28.936 22.1114 28.04C23.7114 27.144 25.1994 25.832 26.5754 24.104V30.632C23.7274 33.704 20.3994 35.24 16.5914 35.24ZM26.0954 22.328H19.2314V17.48H31.5674V35H26.0954V22.328ZM60.8766 29.192V35H37.2126V0.919998H60.4446V6.728H43.8366V14.936H58.1886V20.312H43.8366V29.192H60.8766ZM91.5288 6.728H80.6328V35H74.0568V6.728H63.1608V0.919998H91.5288V6.728ZM105.885 35V0.919998H120.957C122.525 0.919998 123.965 1.24 125.277 1.88C126.621 2.52 127.773 3.384 128.733 4.472C129.725 5.56 130.477 6.776 130.989 8.12C131.533 9.464 131.805 10.84 131.805 12.248C131.805 13.688 131.549 15.08 131.037 16.424C130.557 17.736 129.853 18.888 128.925 19.88C127.997 20.872 126.909 21.64 125.661 22.184L133.437 35H126.141L119.133 23.576H112.509V35H105.885ZM112.509 17.768H120.813C121.645 17.768 122.381 17.528 123.021 17.048C123.661 16.536 124.173 15.864 124.557 15.032C124.941 14.2 125.133 13.272 125.133 12.248C125.133 11.16 124.909 10.216 124.461 9.416C124.013 8.584 123.437 7.928 122.733 7.448C122.061 6.968 121.325 6.728 120.525 6.728H112.509V17.768ZM137.806 35V0.919998H144.43V35H137.806ZM149.477 17.72C149.477 15.64 149.845 13.608 150.581 11.624C151.349 9.608 152.453 7.784 153.893 6.152C155.333 4.488 157.093 3.176 159.173 2.216C161.253 1.224 163.621 0.727998 166.277 0.727998C169.413 0.727998 172.117 1.416 174.389 2.792C176.693 4.168 178.405 5.96 179.525 8.168L174.437 11.672C173.861 10.392 173.109 9.384 172.181 8.648C171.253 7.88 170.261 7.352 169.205 7.064C168.149 6.744 167.109 6.584 166.085 6.584C164.421 6.584 162.965 6.92 161.717 7.592C160.501 8.264 159.477 9.144 158.645 10.232C157.813 11.32 157.189 12.536 156.773 13.88C156.389 15.224 156.197 16.568 156.197 17.912C156.197 19.416 156.437 20.872 156.917 22.28C157.397 23.656 158.069 24.888 158.933 25.976C159.829 27.032 160.885 27.88 162.101 28.52C163.349 29.128 164.709 29.432 166.181 29.432C167.237 29.432 168.309 29.256 169.397 28.904C170.485 28.552 171.493 27.992 172.421 27.224C173.349 26.456 174.069 25.464 174.581 24.248L180.005 27.368C179.333 29.064 178.229 30.504 176.693 31.688C175.189 32.872 173.493 33.768 171.605 34.376C169.717 34.984 167.845 35.288 165.989 35.288C163.557 35.288 161.333 34.792 159.317 33.8C157.301 32.776 155.557 31.432 154.085 29.768C152.645 28.072 151.509 26.184 150.677 24.104C149.877 21.992 149.477 19.864 149.477 17.72ZM213.103 0.919998V35H206.527V20.456H191.071V35H184.447V0.919998H191.071V14.696H206.527V0.919998H213.103Z" fill="white"/>
</svg>
