<svg width="286" height="49" viewBox="0 0 286 49" fill="none" xmlns="http://www.w3.org/2000/svg">
<mask id="path-1-outside-1_3_1715" maskUnits="userSpaceOnUse" x="0" y="0" width="286" height="49" fill="black">
<rect fill="white" width="286" height="49"/>
<path d="M22.616 47.32C19.672 47.32 16.8773 46.7227 14.232 45.528C11.6293 44.3333 9.32533 42.6907 7.32 40.6C5.35733 38.4667 3.82133 35.992 2.712 33.176C1.60267 30.36 1.048 27.3093 1.048 24.024C1.048 20.9093 1.60267 17.9867 2.712 15.256C3.82133 12.4827 5.37867 10.0507 7.384 7.96C9.38933 5.86933 11.736 4.22666 14.424 3.032C17.112 1.83733 20.0347 1.24 23.192 1.24C27.4587 1.24 31.1067 2.15733 34.136 3.992C37.208 5.784 39.512 8.17333 41.048 11.16L34.456 16.024C33.304 13.7627 31.6827 12.0347 29.592 10.84C27.544 9.64533 25.304 9.048 22.872 9.048C20.952 9.048 19.2027 9.45333 17.624 10.264C16.0453 11.0747 14.68 12.184 13.528 13.592C12.376 15 11.48 16.6213 10.84 18.456C10.2427 20.2907 9.944 22.232 9.944 24.28C9.944 26.456 10.264 28.4613 10.904 30.296C11.5867 32.1307 12.5253 33.7307 13.72 35.096C14.9573 36.4613 16.3867 37.5493 18.008 38.36C19.6293 39.128 21.4213 39.512 23.384 39.512C25.688 39.512 27.8853 38.9147 29.976 37.72C32.1093 36.5253 34.0933 34.776 35.928 32.472V41.176C32.1307 45.272 27.6933 47.32 22.616 47.32ZM35.288 30.104H26.136V23.64H42.584V47H35.288V30.104ZM81.663 39.256V47H50.111V1.56H81.087V9.304H58.943V20.248H78.079V27.416H58.943V39.256H81.663ZM122.533 9.304H108.005V47H99.2365V9.304H84.7085V1.56H122.533V9.304ZM141.674 47V1.56H161.77C163.86 1.56 165.78 1.98666 167.53 2.84C169.322 3.69333 170.858 4.84533 172.138 6.296C173.46 7.74666 174.463 9.368 175.146 11.16C175.871 12.952 176.234 14.7867 176.234 16.664C176.234 18.584 175.892 20.44 175.21 22.232C174.57 23.9813 173.631 25.5173 172.394 26.84C171.156 28.1627 169.706 29.1867 168.042 29.912L178.41 47H168.682L159.338 31.768H150.506V47H141.674ZM150.506 24.024H161.578C162.687 24.024 163.668 23.704 164.522 23.064C165.375 22.3813 166.058 21.4853 166.57 20.376C167.082 19.2667 167.338 18.0293 167.338 16.664C167.338 15.2133 167.039 13.9547 166.442 12.888C165.844 11.7787 165.076 10.904 164.138 10.264C163.242 9.624 162.26 9.304 161.194 9.304H150.506V24.024ZM184.236 47V1.56H193.068V47H184.236ZM199.797 23.96C199.797 21.1867 200.287 18.4773 201.269 15.832C202.293 13.144 203.765 10.712 205.685 8.536C207.605 6.31733 209.951 4.568 212.725 3.288C215.498 1.96533 218.655 1.304 222.197 1.304C226.378 1.304 229.983 2.22133 233.013 4.056C236.085 5.89067 238.367 8.28 239.861 11.224L233.076 15.896C232.309 14.1893 231.306 12.8453 230.069 11.864C228.831 10.84 227.509 10.136 226.101 9.752C224.693 9.32533 223.306 9.112 221.941 9.112C219.722 9.112 217.781 9.56 216.117 10.456C214.495 11.352 213.13 12.5253 212.021 13.976C210.911 15.4267 210.079 17.048 209.525 18.84C209.013 20.632 208.757 22.424 208.757 24.216C208.757 26.2213 209.077 28.1627 209.717 30.04C210.357 31.8747 211.253 33.5173 212.405 34.968C213.599 36.376 215.007 37.5067 216.628 38.36C218.293 39.1707 220.106 39.576 222.069 39.576C223.477 39.576 224.906 39.3413 226.357 38.872C227.807 38.4027 229.151 37.656 230.389 36.632C231.626 35.608 232.586 34.2853 233.269 32.664L240.501 36.824C239.605 39.0853 238.133 41.0053 236.085 42.584C234.079 44.1627 231.818 45.3573 229.301 46.168C226.783 46.9787 224.287 47.384 221.813 47.384C218.57 47.384 215.605 46.7227 212.917 45.4C210.229 44.0347 207.903 42.2427 205.941 40.024C204.021 37.7627 202.506 35.2453 201.397 32.472C200.33 29.656 199.797 26.8187 199.797 23.96ZM284.632 1.56V47H275.864V27.608H255.256V47H246.424V1.56H255.256V19.928H275.864V1.56H284.632Z"/>
</mask>
<path d="M14.232 45.528L13.8148 46.4368L13.8204 46.4394L14.232 45.528ZM7.32 40.6L6.58407 41.2771L6.59112 41.2847L6.59832 41.2922L7.32 40.6ZM2.712 33.176L1.78159 33.5425L1.78159 33.5425L2.712 33.176ZM2.712 15.256L3.63848 15.6324L3.64048 15.6274L2.712 15.256ZM7.384 7.96L8.10568 8.65222L8.10568 8.65222L7.384 7.96ZM14.424 3.032L14.0179 2.11819L14.424 3.032ZM34.136 3.992L33.618 4.84736L33.625 4.85162L33.6321 4.85578L34.136 3.992ZM41.048 11.16L41.6417 11.9647L42.3265 11.4594L41.9373 10.7027L41.048 11.16ZM34.456 16.024L33.565 16.4779L34.1005 17.5291L35.0497 16.8287L34.456 16.024ZM29.592 10.84L29.0881 11.7038L29.0959 11.7082L29.592 10.84ZM17.624 10.264L18.0808 11.1536L18.0808 11.1536L17.624 10.264ZM13.528 13.592L14.302 14.2252L14.302 14.2252L13.528 13.592ZM10.84 18.456L9.8958 18.1266L9.89236 18.1365L9.88913 18.1464L10.84 18.456ZM10.904 30.296L9.9598 30.6254L9.96319 30.6351L9.96678 30.6447L10.904 30.296ZM13.72 35.096L12.9674 35.7545L12.9732 35.7611L12.979 35.7675L13.72 35.096ZM18.008 38.36L17.5608 39.2544L17.5703 39.2592L17.5799 39.2637L18.008 38.36ZM29.976 37.72L29.4874 36.8475L29.4799 36.8518L29.976 37.72ZM35.928 32.472H36.928V29.6109L35.1457 31.8491L35.928 32.472ZM35.928 41.176L36.6613 41.8559L36.928 41.5682V41.176H35.928ZM35.288 30.104H36.288V29.104H35.288V30.104ZM26.136 30.104H25.136V31.104H26.136V30.104ZM26.136 23.64V22.64H25.136V23.64H26.136ZM42.584 23.64H43.584V22.64H42.584V23.64ZM42.584 47V48H43.584V47H42.584ZM35.288 47H34.288V48H35.288V47ZM22.616 47.32V46.32C19.8118 46.32 17.1577 45.752 14.6436 44.6166L14.232 45.528L13.8204 46.4394C16.597 47.6933 19.5322 48.32 22.616 48.32V47.32ZM14.232 45.528L14.6492 44.6192C12.1621 43.4775 9.96105 41.9088 8.04168 39.9078L7.32 40.6L6.59832 41.2922C8.68961 43.4725 11.0966 45.1891 13.8148 46.4368L14.232 45.528ZM7.32 40.6L8.05593 39.9229C6.18031 37.8842 4.70861 35.516 3.64241 32.8095L2.712 33.176L1.78159 33.5425C2.93405 36.468 4.53435 39.0491 6.58407 41.2771L7.32 40.6ZM2.712 33.176L3.64241 32.8095C2.58285 30.1198 2.048 27.1947 2.048 24.024H1.048H0.0480001C0.0480001 27.424 0.622483 30.6002 1.78159 33.5425L2.712 33.176ZM1.048 24.024H2.048C2.048 21.0309 2.58041 18.2368 3.63847 15.6324L2.712 15.256L1.78553 14.8796C0.624919 17.7365 0.0480001 20.7877 0.0480001 24.024H1.048ZM2.712 15.256L3.64048 15.6274C4.70363 12.9695 6.19202 10.6473 8.10568 8.65222L7.384 7.96L6.66232 7.26777C4.56532 9.45401 2.93904 11.9958 1.78352 14.8846L2.712 15.256ZM7.384 7.96L8.10568 8.65222C10.0198 6.65665 12.2588 5.08861 14.8301 3.94581L14.424 3.032L14.0179 2.11819C11.2132 3.36471 8.75887 5.08201 6.66232 7.26777L7.384 7.96ZM14.424 3.032L14.8301 3.94581C17.3811 2.81205 20.1642 2.24 23.192 2.24V1.24V0.239998C19.9052 0.239998 16.8429 0.86261 14.0179 2.11819L14.424 3.032ZM23.192 1.24V2.24C27.3136 2.24 30.7741 3.12503 33.618 4.84736L34.136 3.992L34.654 3.13664C31.4392 1.18963 27.6038 0.239998 23.192 0.239998V1.24ZM34.136 3.992L33.6321 4.85578C36.5497 6.55771 38.7151 8.81027 40.1587 11.6173L41.048 11.16L41.9373 10.7027C40.3089 7.53639 37.8663 5.01029 34.6399 3.12822L34.136 3.992ZM41.048 11.16L40.4543 10.3553L33.8623 15.2193L34.456 16.024L35.0497 16.8287L41.6417 11.9647L41.048 11.16ZM34.456 16.024L35.347 15.5701C34.1116 13.145 32.3574 11.2684 30.0881 9.97176L29.592 10.84L29.0959 11.7082C31.008 12.8009 32.4964 14.3804 33.565 16.4779L34.456 16.024ZM29.592 10.84L30.0959 9.97622C27.8909 8.68996 25.4763 8.048 22.872 8.048V9.048V10.048C25.1317 10.048 27.1971 10.6007 29.0881 11.7038L29.592 10.84ZM22.872 9.048V8.048C20.8064 8.048 18.8986 8.48535 17.1672 9.37443L17.624 10.264L18.0808 11.1536C19.5068 10.4213 21.0976 10.048 22.872 10.048V9.048ZM17.624 10.264L17.1672 9.37443C15.4632 10.2494 13.9908 11.4472 12.754 12.9588L13.528 13.592L14.302 14.2252C15.3692 12.9208 16.6275 11.8999 18.0808 11.1536L17.624 10.264ZM13.528 13.592L12.754 12.9588C11.523 14.4633 10.5717 16.1891 9.8958 18.1266L10.84 18.456L11.7842 18.7854C12.3883 17.0536 13.229 15.5367 14.302 14.2252L13.528 13.592ZM10.84 18.456L9.88913 18.1464C9.2573 20.087 8.944 22.1333 8.944 24.28H9.944H10.944C10.944 22.3307 11.228 20.4943 11.7909 18.7656L10.84 18.456ZM9.944 24.28H8.944C8.944 26.5548 9.27872 28.6729 9.9598 30.6254L10.904 30.296L11.8482 29.9666C11.2493 28.2497 10.944 26.3572 10.944 24.28H9.944ZM10.904 30.296L9.96678 30.6447C10.6884 32.584 11.6868 34.291 12.9674 35.7545L13.72 35.096L14.4726 34.4375C13.3638 33.1703 12.485 31.6774 11.8412 29.9473L10.904 30.296ZM13.72 35.096L12.979 35.7675C14.2982 37.2232 15.8267 38.3874 17.5608 39.2544L18.008 38.36L18.4552 37.4656C16.9466 36.7113 15.6165 35.6995 14.461 34.4245L13.72 35.096ZM18.008 38.36L17.5799 39.2637C19.3472 40.1009 21.2874 40.512 23.384 40.512V39.512V38.512C21.5553 38.512 19.9114 38.1551 18.4361 37.4563L18.008 38.36ZM23.384 39.512V40.512C25.87 40.512 28.2375 39.8652 30.4721 38.5882L29.976 37.72L29.4799 36.8518C27.5332 37.9641 25.506 38.512 23.384 38.512V39.512ZM29.976 37.72L30.4646 38.5925C32.7317 37.3229 34.811 35.4801 36.7103 33.0949L35.928 32.472L35.1457 31.8491C33.3757 34.0719 31.487 35.7277 29.4874 36.8475L29.976 37.72ZM35.928 32.472H34.928V41.176H35.928H36.928V32.472H35.928ZM35.928 41.176L35.1947 40.4961C31.5655 44.4107 27.3855 46.32 22.616 46.32V47.32V48.32C28.0012 48.32 32.6958 46.1333 36.6613 41.8559L35.928 41.176ZM35.288 30.104V29.104H26.136V30.104V31.104H35.288V30.104ZM26.136 30.104H27.136V23.64H26.136H25.136V30.104H26.136ZM26.136 23.64V24.64H42.584V23.64V22.64H26.136V23.64ZM42.584 23.64H41.584V47H42.584H43.584V23.64H42.584ZM42.584 47V46H35.288V47V48H42.584V47ZM35.288 47H36.288V30.104H35.288H34.288V47H35.288ZM81.663 39.256H82.663V38.256H81.663V39.256ZM81.663 47V48H82.663V47H81.663ZM50.111 47H49.111V48H50.111V47ZM50.111 1.56V0.559998H49.111V1.56H50.111ZM81.087 1.56H82.087V0.559998H81.087V1.56ZM81.087 9.304V10.304H82.087V9.304H81.087ZM58.943 9.304V8.304H57.943V9.304H58.943ZM58.943 20.248H57.943V21.248H58.943V20.248ZM78.079 20.248H79.079V19.248H78.079V20.248ZM78.079 27.416V28.416H79.079V27.416H78.079ZM58.943 27.416V26.416H57.943V27.416H58.943ZM58.943 39.256H57.943V40.256H58.943V39.256ZM81.663 39.256H80.663V47H81.663H82.663V39.256H81.663ZM81.663 47V46H50.111V47V48H81.663V47ZM50.111 47H51.111V1.56H50.111H49.111V47H50.111ZM50.111 1.56V2.56H81.087V1.56V0.559998H50.111V1.56ZM81.087 1.56H80.087V9.304H81.087H82.087V1.56H81.087ZM81.087 9.304V8.304H58.943V9.304V10.304H81.087V9.304ZM58.943 9.304H57.943V20.248H58.943H59.943V9.304H58.943ZM58.943 20.248V21.248H78.079V20.248V19.248H58.943V20.248ZM78.079 20.248H77.079V27.416H78.079H79.079V20.248H78.079ZM78.079 27.416V26.416H58.943V27.416V28.416H78.079V27.416ZM58.943 27.416H57.943V39.256H58.943H59.943V27.416H58.943ZM58.943 39.256V40.256H81.663V39.256V38.256H58.943V39.256ZM122.533 9.304V10.304H123.533V9.304H122.533ZM108.005 9.304V8.304H107.005V9.304H108.005ZM108.005 47V48H109.005V47H108.005ZM99.2365 47H98.2365V48H99.2365V47ZM99.2365 9.304H100.237V8.304H99.2365V9.304ZM84.7085 9.304H83.7085V10.304H84.7085V9.304ZM84.7085 1.56V0.559998H83.7085V1.56H84.7085ZM122.533 1.56H123.533V0.559998H122.533V1.56ZM122.533 9.304V8.304H108.005V9.304V10.304H122.533V9.304ZM108.005 9.304H107.005V47H108.005H109.005V9.304H108.005ZM108.005 47V46H99.2365V47V48H108.005V47ZM99.2365 47H100.237V9.304H99.2365H98.2365V47H99.2365ZM99.2365 9.304V8.304H84.7085V9.304V10.304H99.2365V9.304ZM84.7085 9.304H85.7085V1.56H84.7085H83.7085V9.304H84.7085ZM84.7085 1.56V2.56H122.533V1.56V0.559998H84.7085V1.56ZM122.533 1.56H121.533V9.304H122.533H123.533V1.56H122.533ZM141.674 47H140.674V48H141.674V47ZM141.674 1.56V0.559998H140.674V1.56H141.674ZM167.53 2.84L167.091 3.7388L167.1 3.74286L167.53 2.84ZM172.138 6.296L171.388 6.95762L171.393 6.96373L171.399 6.96975L172.138 6.296ZM175.146 11.16L174.211 11.516L174.215 11.5256L174.219 11.5352L175.146 11.16ZM175.21 22.232L174.275 21.876L174.27 21.8884L175.21 22.232ZM172.394 26.84L171.663 26.1568L171.663 26.1568L172.394 26.84ZM168.042 29.912L167.642 28.9953L166.593 29.4525L167.187 30.4307L168.042 29.912ZM178.41 47V48H180.186L179.264 46.4813L178.41 47ZM168.682 47L167.829 47.5229L168.122 48H168.682V47ZM159.338 31.768L160.19 31.2451L159.897 30.768H159.338V31.768ZM150.506 31.768V30.768H149.506V31.768H150.506ZM150.506 47V48H151.506V47H150.506ZM150.506 24.024H149.506V25.024H150.506V24.024ZM164.522 23.064L165.122 23.864L165.134 23.8546L165.146 23.8449L164.522 23.064ZM166.57 20.376L167.477 20.7951L167.477 20.7951L166.57 20.376ZM166.442 12.888L165.561 13.3621L165.565 13.3694L165.569 13.3766L166.442 12.888ZM164.138 10.264L163.556 11.0777L163.565 11.0841L163.574 11.0902L164.138 10.264ZM150.506 9.304V8.304H149.506V9.304H150.506ZM141.674 47H142.674V1.56H141.674H140.674V47H141.674ZM141.674 1.56V2.56H161.77V1.56V0.559998H141.674V1.56ZM161.77 1.56V2.56C163.72 2.56 165.488 2.95691 167.091 3.73876L167.53 2.84L167.968 1.94123C166.072 1.01642 164.001 0.559998 161.77 0.559998V1.56ZM167.53 2.84L167.1 3.74286C168.773 4.53972 170.199 5.61078 171.388 6.95762L172.138 6.296L172.887 5.63438C171.516 4.07989 169.87 2.84694 167.959 1.93714L167.53 2.84ZM172.138 6.296L171.399 6.96975C172.639 8.32995 173.574 9.84405 174.211 11.516L175.146 11.16L176.08 10.804C175.352 8.89195 174.282 7.16338 172.876 5.62224L172.138 6.296ZM175.146 11.16L174.219 11.5352C174.897 13.2116 175.234 14.9191 175.234 16.664H176.234H177.234C177.234 14.6542 176.845 12.6924 176.072 10.7848L175.146 11.16ZM176.234 16.664H175.234C175.234 18.4625 174.914 20.1978 174.275 21.876L175.21 22.232L176.144 22.588C176.87 20.6822 177.234 18.7055 177.234 16.664H176.234ZM175.21 22.232L174.27 21.8884C173.675 23.5154 172.806 24.935 171.663 26.1568L172.394 26.84L173.124 27.5232C174.455 26.0996 175.464 24.4473 176.149 22.5756L175.21 22.232ZM172.394 26.84L171.663 26.1568C170.519 27.3797 169.181 28.3243 167.642 28.9953L168.042 29.912L168.441 30.8287C170.23 30.049 171.793 28.9456 173.124 27.5232L172.394 26.84ZM168.042 29.912L167.187 30.4307L177.555 47.5187L178.41 47L179.264 46.4813L168.896 29.3933L168.042 29.912ZM178.41 47V46H168.682V47V48H178.41V47ZM168.682 47L169.534 46.4771L160.19 31.2451L159.338 31.768L158.485 32.2909L167.829 47.5229L168.682 47ZM159.338 31.768V30.768H150.506V31.768V32.768H159.338V31.768ZM150.506 31.768H149.506V47H150.506H151.506V31.768H150.506ZM150.506 47V46H141.674V47V48H150.506V47ZM150.506 24.024V25.024H161.578V24.024V23.024H150.506V24.024ZM161.578 24.024V25.024C162.894 25.024 164.088 24.6393 165.122 23.864L164.522 23.064L163.922 22.264C163.249 22.7687 162.48 23.024 161.578 23.024V24.024ZM164.522 23.064L165.146 23.8449C166.134 23.0543 166.908 22.0285 167.477 20.7951L166.57 20.376L165.662 19.9569C165.207 20.9421 164.615 21.7084 163.897 22.2831L164.522 23.064ZM166.57 20.376L167.477 20.7951C168.057 19.5397 168.338 18.1569 168.338 16.664H167.338H166.338C166.338 17.9017 166.106 18.9937 165.662 19.9569L166.57 20.376ZM167.338 16.664H168.338C168.338 15.0742 168.009 13.641 167.314 12.3994L166.442 12.888L165.569 13.3766C166.068 14.2684 166.338 15.3524 166.338 16.664H167.338ZM166.442 12.888L167.322 12.4139C166.657 11.1791 165.786 10.1775 164.701 9.43777L164.138 10.264L163.574 11.0902C164.367 11.6305 165.031 12.3782 165.561 13.3621L166.442 12.888ZM164.138 10.264L164.719 9.45027C163.659 8.6933 162.476 8.304 161.194 8.304V9.304V10.304C162.045 10.304 162.824 10.5547 163.556 11.0777L164.138 10.264ZM161.194 9.304V8.304H150.506V9.304V10.304H161.194V9.304ZM150.506 9.304H149.506V24.024H150.506H151.506V9.304H150.506ZM184.236 47H183.236V48H184.236V47ZM184.236 1.56V0.559998H183.236V1.56H184.236ZM193.068 1.56H194.068V0.559998H193.068V1.56ZM193.068 47V48H194.068V47H193.068ZM184.236 47H185.236V1.56H184.236H183.236V47H184.236ZM184.236 1.56V2.56H193.068V1.56V0.559998H184.236V1.56ZM193.068 1.56H192.068V47H193.068H194.068V1.56H193.068ZM193.068 47V46H184.236V47V48H193.068V47ZM201.269 15.832L200.334 15.476L200.331 15.4842L201.269 15.832ZM205.685 8.536L206.434 9.19765L206.441 9.19038L205.685 8.536ZM212.725 3.288L213.144 4.19603L213.155 4.1906L212.725 3.288ZM233.013 4.056L232.494 4.91138L232.5 4.91454L233.013 4.056ZM239.861 11.224L240.428 12.0476L241.148 11.5516L240.752 10.7716L239.861 11.224ZM233.076 15.896L232.165 16.3064L232.656 17.3995L233.644 16.7196L233.076 15.896ZM230.069 11.864L229.431 12.6344L229.439 12.641L229.447 12.6475L230.069 11.864ZM226.101 9.752L225.81 10.709L225.824 10.7131L225.837 10.7168L226.101 9.752ZM216.117 10.456L215.642 9.57547L215.633 9.58076L216.117 10.456ZM212.021 13.976L211.226 13.3685L211.226 13.3685L212.021 13.976ZM209.525 18.84L208.569 18.5443L208.566 18.5548L208.563 18.5653L209.525 18.84ZM209.717 30.04L208.77 30.3627L208.772 30.3694L209.717 30.04ZM212.405 34.968L211.621 35.5899L211.631 35.6026L211.642 35.615L212.405 34.968ZM216.628 38.36L216.163 39.2449L216.177 39.2522L216.191 39.259L216.628 38.36ZM226.357 38.872L226.049 37.9206L226.049 37.9206L226.357 38.872ZM230.389 36.632L229.751 35.8616L229.751 35.8616L230.389 36.632ZM233.269 32.664L233.767 31.7972L232.786 31.2329L232.347 32.2759L233.269 32.664ZM240.501 36.824L241.43 37.1924L241.749 36.3884L240.999 35.9572L240.501 36.824ZM236.085 42.584L235.474 41.7919L235.466 41.7983L236.085 42.584ZM229.301 46.168L229.607 47.1199L229.301 46.168ZM212.917 45.4L212.464 46.2917L212.475 46.2973L212.917 45.4ZM205.941 40.024L205.178 40.6712L205.185 40.679L205.192 40.6866L205.941 40.024ZM201.397 32.472L200.461 32.8262L200.465 32.8348L200.468 32.8434L201.397 32.472ZM199.797 23.96H200.797C200.797 21.3075 201.265 18.7158 202.206 16.1798L201.269 15.832L200.331 15.4842C199.309 18.2389 198.797 21.0659 198.797 23.96H199.797ZM201.269 15.832L202.203 16.188C203.184 13.6131 204.593 11.2845 206.434 9.19762L205.685 8.536L204.935 7.87438C202.936 10.1395 201.401 12.6749 200.334 15.476L201.269 15.832ZM205.685 8.536L206.441 9.19038C208.264 7.08367 210.494 5.41887 213.144 4.19596L212.725 3.288L212.305 2.38004C209.408 3.71713 206.945 5.55099 204.928 7.88162L205.685 8.536ZM212.725 3.288L213.155 4.1906C215.775 2.94116 218.781 2.304 222.197 2.304V1.304V0.303997C218.529 0.303997 215.221 0.989506 212.294 2.38539L212.725 3.288ZM222.197 1.304V2.304C226.229 2.304 229.648 3.1872 232.494 4.91136L233.013 4.056L233.531 3.20064C230.319 1.25546 226.527 0.303997 222.197 0.303997V1.304ZM233.013 4.056L232.5 4.91454C235.424 6.6608 237.568 8.91498 238.969 11.6764L239.861 11.224L240.752 10.7716C239.166 7.64502 236.745 5.12053 233.525 3.19746L233.013 4.056ZM239.861 11.224L239.293 10.4004L232.509 15.0724L233.076 15.896L233.644 16.7196L240.428 12.0476L239.861 11.224ZM233.076 15.896L233.988 15.4856C233.167 13.66 232.074 12.178 230.69 11.0805L230.069 11.864L229.447 12.6475C230.538 13.5126 231.45 14.7186 232.165 16.3064L233.076 15.896ZM230.069 11.864L230.706 11.0936C229.37 9.98812 227.922 9.21228 226.364 8.78724L226.101 9.752L225.837 10.7168C227.095 11.0597 228.292 11.6919 229.431 12.6344L230.069 11.864ZM226.101 9.752L226.391 8.79497C224.896 8.34202 223.411 8.112 221.941 8.112V9.112V10.112C223.2 10.112 224.489 10.3086 225.81 10.709L226.101 9.752ZM221.941 9.112V8.112C219.585 8.112 217.476 8.58845 215.642 9.57553L216.117 10.456L216.591 11.3365C218.085 10.5316 219.858 10.112 221.941 10.112V9.112ZM216.117 10.456L215.633 9.58076C213.892 10.5426 212.421 11.8065 211.226 13.3685L212.021 13.976L212.815 14.5834C213.839 13.2442 215.098 12.1614 216.6 11.3312L216.117 10.456ZM212.021 13.976L211.226 13.3685C210.043 14.9154 209.158 16.6428 208.569 18.5443L209.525 18.84L210.48 19.1357C211.001 17.4532 211.779 15.9379 212.815 14.5834L212.021 13.976ZM209.525 18.84L208.563 18.5653C208.026 20.443 207.757 22.3274 207.757 24.216H208.757H209.757C209.757 22.5206 209.999 20.821 210.486 19.1147L209.525 18.84ZM208.757 24.216H207.757C207.757 26.3299 208.094 28.3803 208.77 30.3627L209.717 30.04L210.663 29.7173C210.059 27.945 209.757 26.1128 209.757 24.216H208.757ZM209.717 30.04L208.772 30.3694C209.447 32.3047 210.396 34.0472 211.621 35.5899L212.405 34.968L213.188 34.3461C212.109 32.9875 211.266 31.4447 210.661 29.7106L209.717 30.04ZM212.405 34.968L211.642 35.615C212.919 37.1198 214.427 38.3315 216.163 39.2449L216.628 38.36L217.094 37.4751C215.587 36.6818 214.28 35.6322 213.167 34.321L212.405 34.968ZM216.628 38.36L216.191 39.259C217.999 40.1401 219.963 40.576 222.069 40.576V39.576V38.576C220.248 38.576 218.586 38.2012 217.066 37.461L216.628 38.36ZM222.069 39.576V40.576C223.589 40.576 225.122 40.3223 226.664 39.8234L226.357 38.872L226.049 37.9206C224.689 38.3604 223.364 38.576 222.069 38.576V39.576ZM226.357 38.872L226.664 39.8234C228.242 39.3131 229.697 38.5027 231.026 37.4024L230.389 36.632L229.751 35.8616C228.606 36.8093 227.373 37.4922 226.049 37.9206L226.357 38.872ZM230.389 36.632L231.026 37.4024C232.399 36.2661 233.451 34.8074 234.19 33.0521L233.269 32.664L232.347 32.2759C231.721 33.7632 230.853 34.9499 229.751 35.8616L230.389 36.632ZM233.269 32.664L232.77 33.5308L240.002 37.6908L240.501 36.824L240.999 35.9572L233.767 31.7972L233.269 32.664ZM240.501 36.824L239.571 36.4556C238.745 38.5389 237.389 40.316 235.474 41.792L236.085 42.584L236.695 43.376C238.876 41.6946 240.464 39.6317 241.43 37.1924L240.501 36.824ZM236.085 42.584L235.466 41.7983C233.557 43.3008 231.402 44.4405 228.994 45.2161L229.301 46.168L229.607 47.1199C232.233 46.2741 234.601 45.0245 236.703 43.3697L236.085 42.584ZM229.301 46.168L228.994 45.2161C226.569 45.9971 224.176 46.384 221.813 46.384V47.384V48.384C224.398 48.384 226.997 47.9602 229.607 47.1199L229.301 46.168ZM221.813 47.384V46.384C218.71 46.384 215.898 45.7524 213.358 44.5027L212.917 45.4L212.475 46.2973C215.311 47.693 218.43 48.384 221.813 48.384V47.384ZM212.917 45.4L213.369 44.5084C210.792 43.1991 208.567 41.4841 206.689 39.3614L205.941 40.024L205.192 40.6866C207.239 43.0012 209.665 44.8703 212.464 46.2916L212.917 45.4ZM205.941 40.024L206.703 39.3768C204.853 37.1984 203.394 34.7743 202.325 32.1006L201.397 32.472L200.468 32.8434C201.617 35.7163 203.188 38.327 205.178 40.6712L205.941 40.024ZM201.397 32.472L202.332 32.1178C201.306 29.4088 200.797 26.6913 200.797 23.96H199.797H198.797C198.797 26.9461 199.354 29.9032 200.461 32.8262L201.397 32.472ZM284.632 1.56H285.632V0.559998H284.632V1.56ZM284.632 47V48H285.632V47H284.632ZM275.864 47H274.864V48H275.864V47ZM275.864 27.608H276.864V26.608H275.864V27.608ZM255.256 27.608V26.608H254.256V27.608H255.256ZM255.256 47V48H256.256V47H255.256ZM246.424 47H245.424V48H246.424V47ZM246.424 1.56V0.559998H245.424V1.56H246.424ZM255.256 1.56H256.256V0.559998H255.256V1.56ZM255.256 19.928H254.256V20.928H255.256V19.928ZM275.864 19.928V20.928H276.864V19.928H275.864ZM275.864 1.56V0.559998H274.864V1.56H275.864ZM284.632 1.56H283.632V47H284.632H285.632V1.56H284.632ZM284.632 47V46H275.864V47V48H284.632V47ZM275.864 47H276.864V27.608H275.864H274.864V47H275.864ZM275.864 27.608V26.608H255.256V27.608V28.608H275.864V27.608ZM255.256 27.608H254.256V47H255.256H256.256V27.608H255.256ZM255.256 47V46H246.424V47V48H255.256V47ZM246.424 47H247.424V1.56H246.424H245.424V47H246.424ZM246.424 1.56V2.56H255.256V1.56V0.559998H246.424V1.56ZM255.256 1.56H254.256V19.928H255.256H256.256V1.56H255.256ZM255.256 19.928V20.928H275.864V19.928V18.928H255.256V19.928ZM275.864 19.928H276.864V1.56H275.864H274.864V19.928H275.864ZM275.864 1.56V2.56H284.632V1.56V0.559998H275.864V1.56Z" fill="white" mask="url(#path-1-outside-1_3_1715)"/>
</svg>
