<?xml version="1.0" encoding="UTF-8"?>
<svg xmlns="http://www.w3.org/2000/svg" style="display: none;">
    <!-- Логотип -->
    <symbol id="logo" viewBox="0 0 286 49">
        <path d="M22.616 47.32C19.672 47.32 16.8773 46.7227 14.232 45.528C11.6293 44.3333 9.32533 42.6907 7.32 40.6C5.35733 38.4667 3.82133 35.992 2.712 33.176C1.60267 30.36 1.048 27.3093 1.048 24.024C1.048 20.9093 1.60267 17.9867 2.712 15.256C3.82133 12.4827 5.37867 10.0507 7.384 7.96C9.38933 5.86933 11.736 4.22666 14.424 3.032C17.112 1.83733 20.0347 1.24 23.192 1.24C27.4587 1.24 31.1067 2.15733 34.136 3.992C37.208 5.784 39.512 8.17333 41.048 11.16L34.456 16.024C33.304 13.7627 31.6827 12.0347 29.592 10.84C27.544 9.64533 25.304 9.048 22.872 9.048C20.952 9.048 19.2027 9.45333 17.624 10.264C16.0453 11.0747 14.68 12.184 13.528 13.592C12.376 15 11.48 16.6213 10.84 18.456C10.2427 20.2907 9.944 22.232 9.944 24.28C9.944 26.456 10.264 28.4613 10.904 30.296C11.5867 32.1307 12.5253 33.7307 13.72 35.096C14.9573 36.4613 16.3867 37.5493 18.008 38.36C19.6293 39.128 21.4213 39.512 23.384 39.512C25.688 39.512 27.8853 38.9147 29.976 37.72C32.1093 36.5253 34.0933 34.776 35.928 32.472V41.176C32.1307 45.272 27.6933 47.32 22.616 47.32Z" fill="currentColor"/>
    </symbol>
    
    <!-- Facebook -->
    <symbol id="facebook" viewBox="0 0 54 48">
        <path d="M51.321 0.38092H2.70785C1.53876 0.38092 0.594238 1.23211 0.594238 2.28568V46.0952C0.594238 47.1488 1.53876 48 2.70785 48H51.321C52.4901 48 53.4346 47.1488 53.4346 46.0952V2.28568C53.4346 1.23211 52.4901 0.38092 51.321 0.38092ZM49.2074 44.1904H37.0475V29.5595H43.9168L44.9471 22.375H37.0475V17.7857C37.0475 15.7023 37.6882 14.2857 40.9973 14.2857H45.2179V7.85711C44.4848 7.76783 41.9815 7.5714 39.062 7.5714C32.9722 7.5714 28.8044 10.9226 28.8044 17.0714V22.369H21.9219V29.5535H28.811V44.1904H4.82147V4.19044H49.2074V44.1904Z" fill="currentColor"/>
    </symbol>
    
    <!-- Instagram -->
    <symbol id="instagram" viewBox="0 0 48 48">
        <path d="M24 0C10.8 0 0 10.8 0 24C0 37.2 10.8 48 24 48C37.2 48 48 37.2 48 24C48 10.8 37.2 0 24 0ZM24 44C13 44 4 35 4 24C4 13 13 4 24 4C35 4 44 13 44 24C44 35 35 44 24 44ZM36 14C34.9 14 34 14.9 34 16C34 17.1 34.9 18 36 18C37.1 18 38 17.1 38 16C38 14.9 37.1 14 36 14ZM24 8C17.4 8 12 13.4 12 20C12 26.6 17.4 32 24 32C30.6 32 36 26.6 36 20C36 13.4 30.6 8 24 8ZM24 28C19.6 28 16 24.4 16 20C16 15.6 19.6 12 24 12C28.4 12 32 15.6 32 20C32 24.4 28.4 28 24 28Z" fill="currentColor"/>
    </symbol>
    
    <!-- Корзина -->
    <symbol id="cart" viewBox="0 0 48 48">
        <path d="M14 36C12.9 36 12.01 36.9 12.01 38C12.01 39.1 12.9 40 14 40C15.1 40 16 39.1 16 38C16 36.9 15.1 36 14 36ZM2 4V8H6L13.6 21.59L11.25 25.84C11.09 26.14 11 26.5 11 26.9C11 28.1 11.9 29 13.1 29H38V25H14.42C14.28 25 14.17 24.89 14.17 24.75L14.2 24.63L16.1 21H33.55C34.3 21 34.96 20.59 35.3 19.97L43.88 7.5C44.18 6.96 44.02 6.28 43.48 5.98C43.24 5.84 42.96 5.79 42.7 5.86L37.21 7H10.11L8.71 4H2ZM34 36C32.9 36 32.01 36.9 32.01 38C32.01 39.1 32.9 40 34 40C35.1 40 36 39.1 36 38C36 36.9 35.1 36 34 36Z" fill="currentColor"/>
    </symbol>
    
    <!-- Телефон -->
    <symbol id="phone" viewBox="0 0 48 48">
        <path d="M34 4H14C11.79 4 10 5.79 10 8V40C10 42.21 11.79 44 14 44H34C36.21 44 38 42.21 38 40V8C38 5.79 36.21 4 34 4ZM34 40H14V8H34V40ZM24 42C25.1 42 26 41.1 26 40C26 38.9 25.1 38 24 38C22.9 38 22 38.9 22 40C22 41.1 22.9 42 24 42Z" fill="currentColor"/>
    </symbol>
    
    <!-- Почта -->
    <symbol id="mail" viewBox="0 0 48 48">
        <path d="M40 8H8C5.79 8 4 9.79 4 12V36C4 38.21 5.79 40 8 40H40C42.21 40 44 38.21 44 36V12C44 9.79 42.21 8 40 8ZM40 12V14.24L24 24.24L8 14.24V12H40ZM8 36V19.76L23.28 29.24C23.68 29.48 24.32 29.48 24.72 29.24L40 19.76V36H8Z" fill="currentColor"/>
    </symbol>
</svg> 