<svg width="54" height="48" viewBox="0 0 54 48" fill="none" xmlns="http://www.w3.org/2000/svg">
<path d="M26.8419 0.678528C34.007 0.678528 34.8953 0.708915 37.7091 0.822083V0.823059L37.7208 0.824036C39.8633 0.863655 41.982 1.23001 43.9865 1.90704V1.90607C45.6794 2.49689 47.2129 3.39837 48.4913 4.54865C49.6907 5.62783 50.6404 6.90411 51.2902 8.30353L51.4161 8.58575C52.1747 10.3983 52.577 12.314 52.6056 14.2479L53.1056 14.241L52.6066 14.2733C52.7697 16.7817 52.7696 17.5841 52.7755 24.0369L52.7677 27.9285C52.7511 30.9919 52.7067 31.9143 52.6124 33.8113L53.1115 33.8358L52.6115 33.8113V33.825C52.5688 35.7386 52.1689 37.6246 51.422 39.4149C50.7709 40.9243 49.7755 42.299 48.4962 43.45C47.2967 44.5293 45.8731 45.3896 44.3038 45.9803L43.9874 46.0945C41.9845 46.7704 39.8673 47.1357 37.7267 47.1736H37.7179L37.7091 47.1746C34.9214 47.3217 34.016 47.3211 26.8448 47.3211C21.4707 47.3211 19.6279 47.3023 17.8536 47.2449L15.9747 47.1736H15.9689C13.9567 47.1141 11.9697 46.7649 10.0831 46.1414L9.70715 46.0135L9.7052 46.0125L9.38879 45.8983C7.819 45.3088 6.3944 44.4497 5.19446 43.3709C3.99458 42.2921 3.04406 41.0162 2.39368 39.617L2.2677 39.3348C1.52102 37.542 1.12087 35.6564 1.07825 33.7459V33.7352L1.07727 33.7244L1.02356 32.8494C0.914258 30.9282 0.914185 29.6041 0.914185 23.9578C0.914185 17.5119 0.952599 16.7153 1.07825 14.1834V14.1688C1.11841 12.2599 1.52113 10.3702 2.26965 8.58087L2.26868 8.5799C2.91851 7.07156 3.9134 5.6977 5.19153 4.54767C6.46979 3.39753 8.00361 2.4965 9.69641 1.90607L9.69739 1.90704C11.7011 1.23024 13.8194 0.86391 15.9611 0.824036H15.9689L15.9777 0.823059C18.7655 0.678596 19.6711 0.678528 26.8419 0.678528ZM26.8243 11.2342C19.1022 11.2343 12.7542 16.8741 12.754 23.9442C12.754 30.9041 18.9056 36.4789 26.464 36.6512L26.8243 36.6551C30.5401 36.6551 34.1132 35.3271 36.755 32.95C39.3984 30.5714 40.8947 27.3331 40.8947 23.9442C40.8946 20.5552 39.3985 17.3168 36.755 14.9383C34.1957 12.6355 30.7623 11.3181 27.172 11.2381L26.8243 11.2342ZM40.9337 7.93634C40.4597 7.93634 39.9893 8.02031 39.549 8.18439C39.1085 8.34854 38.7046 8.59042 38.3624 8.89825C38.0203 9.20612 37.7462 9.5748 37.5577 9.98419C37.3692 10.3938 37.2707 10.835 37.2706 11.282L37.2755 11.4588C37.3762 13.2698 39.0195 14.6297 40.9357 14.6297C42.9075 14.6295 44.5968 13.1803 44.5968 11.282L44.5919 11.1151C44.5706 10.7254 44.4747 10.3427 44.3097 9.98419C44.1212 9.5748 43.8471 9.20613 43.505 8.89825C43.1629 8.59041 42.7589 8.34854 42.3185 8.18439C41.8781 8.02032 41.4077 7.93634 40.9337 7.93634Z" fill="white" stroke="white"/>
<path d="M26.8245 16.5128C31.4674 16.513 35.1388 19.8889 35.1389 23.9454C35.1389 28.002 31.4675 31.3779 26.8245 31.3781C22.1813 31.3781 18.509 28.0021 18.509 23.9454C18.5091 19.8888 22.1813 16.5128 26.8245 16.5128Z" fill="white" stroke="white"/>
</svg>
