<svg width="54" height="46" viewBox="0 0 54 46" fill="none" xmlns="http://www.w3.org/2000/svg">
<path d="M19.5797 1.18751C19.7657 1.28793 19.928 1.4204 20.0573 1.57736C20.1866 1.73433 20.2802 1.9127 20.333 2.10229C20.3857 2.29189 20.3965 2.48899 20.3647 2.68235C20.3329 2.8757 20.2592 3.06151 20.1477 3.22917L11.7395 15.8572H42.235L33.8234 3.22917C33.5983 2.89055 33.5317 2.48521 33.6382 2.10232C33.7448 1.71944 34.0157 1.39037 34.3915 1.18751C34.7672 0.984648 35.217 0.924616 35.6419 1.02062C36.0668 1.11662 36.4319 1.36079 36.657 1.69941L46.0857 15.8572H50.1049C50.9808 15.8572 51.8208 16.1707 52.4401 16.7289C53.0595 17.287 53.4074 18.044 53.4074 18.8333V21.8095C53.4074 22.5989 53.0595 23.3559 52.4401 23.914C51.8208 24.4722 50.9808 24.7857 50.1049 24.7857V38.1786C50.1049 40.1519 49.235 42.0444 47.6867 43.4398C46.1383 44.8352 44.0383 45.6191 41.8486 45.6191H12.1259C9.93614 45.6191 7.83612 44.8352 6.28776 43.4398C4.7394 42.0444 3.86954 40.1519 3.86954 38.1786V24.7857C2.99366 24.7857 2.15365 24.4722 1.5343 23.914C0.91496 23.3559 0.567017 22.5989 0.567017 21.8095V18.8333C0.567017 18.044 0.91496 17.287 1.5343 16.7289C2.15365 16.1707 2.99366 15.8572 3.86954 15.8572H7.88871L17.3108 1.69941C17.4222 1.53172 17.5692 1.38545 17.7434 1.26896C17.9176 1.15247 18.1155 1.06805 18.3259 1.02051C18.5363 0.972971 18.755 0.963253 18.9696 0.991907C19.1841 1.02056 19.3903 1.08703 19.5763 1.18751H19.5797ZM7.17207 24.7857V38.1786C7.17207 39.3626 7.69398 40.4981 8.623 41.3353C9.55201 42.1725 10.812 42.6429 12.1259 42.6429H41.8486C43.1624 42.6429 44.4224 42.1725 45.3514 41.3353C46.2804 40.4981 46.8024 39.3626 46.8024 38.1786V24.7857H7.17207ZM3.86954 18.8333V21.8095H50.1049V18.8333H3.86954ZM13.7771 27.7619C14.2151 27.7619 14.6351 27.9187 14.9447 28.1978C15.2544 28.4768 15.4284 28.8553 15.4284 29.25V38.1786C15.4284 38.5733 15.2544 38.9518 14.9447 39.2308C14.6351 39.5099 14.2151 39.6667 13.7771 39.6667C13.3392 39.6667 12.9192 39.5099 12.6095 39.2308C12.2998 38.9518 12.1259 38.5733 12.1259 38.1786V29.25C12.1259 28.8553 12.2998 28.4768 12.6095 28.1978C12.9192 27.9187 13.3392 27.7619 13.7771 27.7619ZM20.3822 27.7619C20.8201 27.7619 21.2401 27.9187 21.5498 28.1978C21.8595 28.4768 22.0334 28.8553 22.0334 29.25V38.1786C22.0334 38.5733 21.8595 38.9518 21.5498 39.2308C21.2401 39.5099 20.8201 39.6667 20.3822 39.6667C19.9442 39.6667 19.5242 39.5099 19.2145 39.2308C18.9049 38.9518 18.7309 38.5733 18.7309 38.1786V29.25C18.7309 28.8553 18.9049 28.4768 19.2145 28.1978C19.5242 27.9187 19.9442 27.7619 20.3822 27.7619V27.7619ZM26.9872 27.7619C27.4252 27.7619 27.8452 27.9187 28.1548 28.1978C28.4645 28.4768 28.6385 28.8553 28.6385 29.25V38.1786C28.6385 38.5733 28.4645 38.9518 28.1548 39.2308C27.8452 39.5099 27.4252 39.6667 26.9872 39.6667C26.5493 39.6667 26.1293 39.5099 25.8196 39.2308C25.5099 38.9518 25.336 38.5733 25.336 38.1786V29.25C25.336 28.8553 25.5099 28.4768 25.8196 28.1978C26.1293 27.9187 26.5493 27.7619 26.9872 27.7619V27.7619ZM33.5923 27.7619C34.0302 27.7619 34.4502 27.9187 34.7599 28.1978C35.0696 28.4768 35.2435 28.8553 35.2435 29.25V38.1786C35.2435 38.5733 35.0696 38.9518 34.7599 39.2308C34.4502 39.5099 34.0302 39.6667 33.5923 39.6667C33.1543 39.6667 32.7343 39.5099 32.4246 39.2308C32.115 38.9518 31.941 38.5733 31.941 38.1786V29.25C31.941 28.8553 32.115 28.4768 32.4246 28.1978C32.7343 27.9187 33.1543 27.7619 33.5923 27.7619ZM40.1973 27.7619C40.6353 27.7619 41.0553 27.9187 41.3649 28.1978C41.6746 28.4768 41.8486 28.8553 41.8486 29.25V38.1786C41.8486 38.5733 41.6746 38.9518 41.3649 39.2308C41.0553 39.5099 40.6353 39.6667 40.1973 39.6667C39.7594 39.6667 39.3394 39.5099 39.0297 39.2308C38.72 38.9518 38.546 38.5733 38.546 38.1786V29.25C38.546 28.8553 38.72 28.4768 39.0297 28.1978C39.3394 27.9187 39.7594 27.7619 40.1973 27.7619Z" fill="white"/>
</svg>
