<svg width="47" height="33" viewBox="0 0 47 33" fill="none" xmlns="http://www.w3.org/2000/svg">
    <path d="M45.1019 0.666504H2.03937C1.12325 0.666504 0.383118 1.32285 0.383118 2.13525V31.5103C0.383118 32.3227 1.12325 32.979 2.03937 32.979H45.1019C46.018 32.979 46.7581 32.3227 46.7581 31.5103V2.13525C46.7581 1.32285 46.018 0.666504 45.1019 0.666504ZM43.0316 5.75205V29.6743H4.10968V5.75205L2.68116 4.76523L4.71525 2.44736L6.93048 3.97578H40.2159L42.4312 2.44736L44.4652 4.76523L43.0316 5.75205ZM40.2159 3.97119L23.5706 15.4458L6.9253 3.97119L4.71007 2.44277L2.67599 4.76064L4.1045 5.74746L21.785 17.9381C22.2934 18.2884 22.919 18.4785 23.5629 18.4785C24.2067 18.4785 24.8323 18.2884 25.3407 17.9381L43.0316 5.75205L44.4601 4.76523L42.426 2.44736L40.2159 3.97119Z" fill="white"/>
</svg>
