<svg width="53" height="47" viewBox="0 0 53 47" fill="none" xmlns="http://www.w3.org/2000/svg">
    <mask id="path-1-inside-1_3_1621" fill="white">
        <path d="M51.4839 4.8845L51.3967 4.83614L40.3288 0L28.3828 14.1239L33.88 20.6237C33.7138 23.069 32.5455 25.376 30.595 27.1107C28.6444 28.8453 26.0462 29.8878 23.2892 30.0421L23.2565 30.0445L15.927 25.1697L0 35.7632L5.45352 45.5782L5.50805 45.6556C6.0834 46.468 7.08684 47 8.23208 47H11.0979C34.2399 47 53 30.3637 53 9.84154V7.30982V7.30015C53 6.28456 52.4001 5.39471 51.4976 4.89175L51.4839 4.8845ZM48.9099 9.84154C48.9099 28.3301 31.9467 43.3729 11.0979 43.3729H8.78562L5.16721 36.8586L15.927 29.7036L21.9177 33.6885H22.5994C26.679 33.6841 30.5901 32.2451 33.4751 29.6872C36.3601 27.1292 37.9834 23.6611 37.9892 20.0434V19.4389L33.4955 14.1264L41.564 4.58466L48.9099 7.79344V9.84154Z"/>
    </mask>
    <path d="M51.4839 4.8845L51.3967 4.83614L40.3288 0L28.3828 14.1239L33.88 20.6237C33.7138 23.069 32.5455 25.376 30.595 27.1107C28.6444 28.8453 26.0462 29.8878 23.2892 30.0421L23.2565 30.0445L15.927 25.1697L0 35.7632L5.45352 45.5782L5.50805 45.6556C6.0834 46.468 7.08684 47 8.23208 47H11.0979C34.2399 47 53 30.3637 53 9.84154V7.30982V7.30015C53 6.28456 52.4001 5.39471 51.4976 4.89175L51.4839 4.8845ZM48.9099 9.84154C48.9099 28.3301 31.9467 43.3729 11.0979 43.3729H8.78562L5.16721 36.8586L15.927 29.7036L21.9177 33.6885H22.5994C26.679 33.6841 30.5901 32.2451 33.4751 29.6872C36.3601 27.1292 37.9834 23.6611 37.9892 20.0434V19.4389L33.4955 14.1264L41.564 4.58466L48.9099 7.79344V9.84154Z" fill="white"/>
    <path d="M51.4839 4.8845L13.187 73.9811L13.7827 74.3113L14.384 74.6312L51.4839 4.8845ZM51.3967 4.83614L89.6936 -64.2605L86.4384 -66.0647L83.028 -67.5549L51.3967 4.83614ZM40.3288 0L71.9601 -72.391L18.0224 -95.9591L-19.9895 -51.0167L40.3288 0ZM28.3828 14.1239L-31.9354 -36.8928L-75.0838 14.1225L-31.9369 65.139L28.3828 14.1239ZM33.88 20.6237L112.698 25.9786L114.868 -5.95358L94.1997 -30.3913L33.88 20.6237ZM23.2892 30.0421L18.8764 -48.8346L18.1704 -48.7951L17.4652 -48.7429L23.2892 30.0421ZM23.2565 30.0445L-20.4932 95.8242L2.06379 110.827L29.0805 108.83L23.2565 30.0445ZM15.927 25.1697L59.6767 -40.61L15.9258 -69.7085L-27.8244 -40.6088L15.927 25.1697ZM0 35.7632L-43.7514 -30.0153L-104.481 10.3778L-69.0561 74.1332L0 35.7632ZM5.45352 45.5782L-63.6026 83.9481L-61.5521 87.6385L-59.12 91.0893L5.45352 45.5782ZM5.50805 45.6556L-59.0655 91.1667L-59.0146 91.2388L-58.9637 91.3108L5.50805 45.6556ZM51.4976 4.89175L89.9532 -64.1167L89.2789 -64.4924L88.5974 -64.8549L51.4976 4.89175ZM8.78562 43.3729L-60.2757 81.7335L-37.7022 122.373H8.78562V43.3729ZM5.16721 36.8586L-38.5774 -28.9245L-99.3091 11.461L-63.8941 75.2193L5.16721 36.8586ZM15.927 29.7036L59.6813 -36.073L15.934 -65.1735L-27.8176 -36.0795L15.927 29.7036ZM21.9177 33.6885L-21.8366 99.4651L-1.95765 112.689H21.9177V33.6885ZM22.5994 33.6885V112.689H22.6427L22.6861 112.688L22.5994 33.6885ZM37.9892 20.0434L116.989 20.1694L116.989 20.1064V20.0434H37.9892ZM37.9892 19.4389H116.989V-9.49212L98.3051 -31.5807L37.9892 19.4389ZM33.4955 14.1264L-26.8284 -36.8837L-69.9695 14.1345L-26.8204 65.1459L33.4955 14.1264ZM41.564 4.58466L73.1869 -67.81L19.2468 -91.3718L-18.76 -46.4254L41.564 4.58466ZM48.9099 7.79344H127.91V-43.9063L80.5328 -64.6013L48.9099 7.79344ZM51.4839 4.8845L89.7809 -64.2121L89.6936 -64.2605L51.3967 4.83614L13.0997 73.9328L13.187 73.9811L51.4839 4.8845ZM51.3967 4.83614L83.028 -67.5549L71.9601 -72.391L40.3288 0L8.69741 72.391L19.7653 77.2271L51.3967 4.83614ZM40.3288 0L-19.9895 -51.0167L-31.9354 -36.8928L28.3828 14.1239L88.7011 65.1407L100.647 51.0167L40.3288 0ZM28.3828 14.1239L-31.9369 65.139L-26.4397 71.6387L33.88 20.6237L94.1997 -30.3913L88.7025 -36.8911L28.3828 14.1239ZM33.88 20.6237L-44.9383 15.2688C-43.6038 -4.37415 -34.3072 -20.8918 -21.9034 -31.9225L30.595 27.1107L83.0934 86.1438C99.3983 71.6438 111.031 50.5121 112.698 25.9786L33.88 20.6237ZM30.595 27.1107L-21.9034 -31.9225C-9.71999 -42.7573 4.93086 -48.0544 18.8764 -48.8346L23.2892 30.0421L27.702 108.919C47.1615 107.83 67.0089 100.448 83.0934 86.1438L30.595 27.1107ZM23.2892 30.0421L17.4652 -48.7429L17.4325 -48.7405L23.2565 30.0445L29.0805 108.83L29.1133 108.827L23.2892 30.0421ZM23.2565 30.0445L67.0062 -35.7352L59.6767 -40.61L15.927 25.1697L-27.8227 90.9493L-20.4932 95.8242L23.2565 30.0445ZM15.927 25.1697L-27.8244 -40.6088L-43.7514 -30.0153L0 35.7632L43.7514 101.542L59.6784 90.9482L15.927 25.1697ZM0 35.7632L-69.0561 74.1332L-63.6026 83.9481L5.45352 45.5782L74.5096 7.20824L69.0561 -2.6067L0 35.7632ZM5.45352 45.5782L-59.12 91.0893L-59.0655 91.1667L5.50805 45.6556L70.0816 0.144431L70.027 0.0670539L5.45352 45.5782ZM5.50805 45.6556L-58.9637 91.3108C-42.8359 114.086 -17.2281 126 8.23208 126V47V-32C31.4018 -32 55.0027 -21.1495 69.9798 0.000341969L5.50805 45.6556ZM8.23208 47V126H11.0979V47V-32H8.23208V47ZM11.0979 47V126C68.6812 126 132 82.6486 132 9.84154H53H-26C-26 -5.01548 -19.0308 -16.4789 -11.6883 -22.9902C-4.49224 -29.3716 3.79362 -32 11.0979 -32V47ZM53 9.84154H132V7.30982H53H-26V9.84154H53ZM53 7.30982H132V7.30015H53H-26V7.30982H53ZM53 7.30015H132C132 -26.6627 111.895 -51.8892 89.9532 -64.1167L51.4976 4.89175L13.042 73.9002C-7.09517 62.6786 -26 39.2318 -26 7.30015H53ZM51.4976 4.89175L88.5974 -64.8549L88.5838 -64.8622L51.4839 4.8845L14.384 74.6312L14.3977 74.6384L51.4976 4.89175ZM48.9099 9.84154H-30.0901C-30.0901 -6.10702 -22.6099 -18.4574 -14.5933 -25.5664C-6.70955 -32.5577 2.58139 -35.6271 11.0979 -35.6271V43.3729V122.373C66.388 122.373 127.91 80.615 127.91 9.84154H48.9099ZM11.0979 43.3729V-35.6271H8.78562V43.3729V122.373H11.0979V43.3729ZM8.78562 43.3729L77.8469 5.01226L74.2285 -1.50202L5.16721 36.8586L-63.8941 75.2193L-60.2757 81.7335L8.78562 43.3729ZM5.16721 36.8586L48.9118 102.642L59.6716 95.4866L15.927 29.7036L-27.8176 -36.0795L-38.5774 -28.9245L5.16721 36.8586ZM15.927 29.7036L-27.8273 95.4802L-21.8366 99.4651L21.9177 33.6885L65.672 -32.0881L59.6813 -36.073L15.927 29.7036ZM21.9177 33.6885V112.689H22.5994V33.6885V-45.3115H21.9177V33.6885ZM22.5994 33.6885L22.6861 112.688C44.8284 112.664 67.6828 104.938 85.8854 88.7986L33.4751 29.6872L-18.9352 -29.4243C-6.50258 -40.4475 8.52955 -45.2961 22.5127 -45.3114L22.5994 33.6885ZM33.4751 29.6872L85.8854 88.7986C104.394 72.3881 116.945 47.9665 116.989 20.1694L37.9892 20.0434L-41.0107 19.9173C-40.9779 -0.644185 -31.674 -18.1296 -18.9352 -29.4243L33.4751 29.6872ZM37.9892 20.0434H116.989V19.4389H37.9892H-41.0108V20.0434H37.9892ZM37.9892 19.4389L98.3051 -31.5807L93.8114 -36.8932L33.4955 14.1264L-26.8204 65.1459L-22.3267 70.4584L37.9892 19.4389ZM33.4955 14.1264L93.8194 65.1364L101.888 55.5947L41.564 4.58466L-18.76 -46.4254L-26.8284 -36.8837L33.4955 14.1264ZM41.564 4.58466L9.94105 76.9793L17.2869 80.1881L48.9099 7.79344L80.5328 -64.6013L73.1869 -67.81L41.564 4.58466ZM48.9099 7.79344H-30.0901V9.84154H48.9099H127.91V7.79344H48.9099Z" fill="white" mask="url(#path-1-inside-1_3_1621)"/>
</svg>
